HIERARCHY
ROOT Hips
{
	OFFSET 0.000000 0.000000 0.000000
	CHANNELS 6 Xposition Yposition Zposition Zrotation Yrotation Xrotation 
	JOINT LeftUpLeg_virtual
	{
		OFFSET 0.000000 0.000000 0.000000
		CHANNELS 3 Zrotation Yrotation Xrotation
		JOINT LeftUpLeg
		{
			OFFSET 10.205400 -3.823500 0.155100
			CHANNELS 3 Zrotation Yrotation Xrotation
			JOINT LeftLeg
			{
				OFFSET 0.708757 -12.982077 0.567790
				CHANNELS 3 Zrotation Yrotation Xrotation
				JOINT LeftFoot
				{
					OFFSET -0.708756 -10.717838 -2.184338
					CHANNELS 3 Zrotation Yrotation Xrotation
					JOINT LeftToeBase
					{
						OFFSET 0.108149 -7.191104 7.560241
						CHANNELS 3 Zrotation Yrotation Xrotation
						End Site
						{
							OFFSET 0.000000 0.000000 0.000000
						}
					}
				}
			}
		}
	}
	JOINT RightUpLeg_virtual
	{
		OFFSET 0.000000 0.000000 0.000000
		CHANNELS 3 Zrotation Yrotation Xrotation
		JOINT RightUpLeg
		{
			OFFSET -10.205400 -3.823500 0.005500
			CHANNELS 3 Zrotation Yrotation Xrotation
			JOINT RightLeg
			{
				OFFSET -0.708756 -12.982134 0.610632
				CHANNELS 3 Zrotation Yrotation Xrotation
				JOINT RightFoot
				{
					OFFSET 0.708754 -10.717769 -1.945823
					CHANNELS 3 Zrotation Yrotation Xrotation
					JOINT RightToeBase
					{
						OFFSET -0.108140 -7.191069 7.372968
						CHANNELS 3 Zrotation Yrotation Xrotation
						End Site
						{
							OFFSET 0.000000 0.000000 0.000000
						}
					}
				}
			}
		}
	}
	JOINT Spine_virtual
	{
		OFFSET 0.000000 0.000000 0.000000
		CHANNELS 3 Zrotation Yrotation Xrotation
		JOINT Spine
		{
			OFFSET 0.000000 6.876099 0.125700
			CHANNELS 3 Zrotation Yrotation Xrotation
			JOINT Spine1
			{
				OFFSET 0.000000 8.022060 0.146608
				CHANNELS 3 Zrotation Yrotation Xrotation
				JOINT Spine2
				{
					OFFSET 0.000000 9.168068 0.167552
					CHANNELS 3 Zrotation Yrotation Xrotation
					JOINT Neck_virtual
					{
						OFFSET 0.000000 0.000000 0.000000
						CHANNELS 3 Zrotation Yrotation Xrotation
						JOINT Neck
						{
							OFFSET 0.000000 10.314075 0.188496
							CHANNELS 3 Zrotation Yrotation Xrotation
							JOINT Head
							{
								OFFSET 0.000000 7.643700 -2.377400
								CHANNELS 3 Zrotation Yrotation Xrotation
								End Site
								{
									OFFSET 0.000000 0.000000 0.000000
								}
							}
						}
					}
					JOINT LeftShoulder_virtual
					{
						OFFSET 0.000000 0.000000 0.000000
						CHANNELS 3 Zrotation Yrotation Xrotation
						JOINT LeftShoulder
						{
							OFFSET 4.392200 8.824978 0.174984
							CHANNELS 3 Zrotation Yrotation Xrotation
							JOINT LeftArm
							{
								OFFSET 8.771219 -2.981674 -0.026999
								CHANNELS 3 Zrotation Yrotation Xrotation
								JOINT LeftForeArm
								{
									OFFSET 8.512804 0.000000 -0.000000
									CHANNELS 3 Zrotation Yrotation Xrotation
									JOINT LeftHand
									{
										OFFSET 18.484802 0.000000 -0.000000
										CHANNELS 3 Zrotation Yrotation Xrotation
										End Site
										{
											OFFSET 0.000000 0.000000 0.000000
										}
									}
								}
							}
						}
					}
					JOINT RightShoulder_virtual
					{
						OFFSET 0.000000 0.000000 0.000000
						CHANNELS 3 Zrotation Yrotation Xrotation
						JOINT RightShoulder
						{
							OFFSET -4.392200 8.824993 0.141379
							CHANNELS 3 Zrotation Yrotation Xrotation
							JOINT RightArm
							{
								OFFSET -8.771282 -2.981682 -0.094208
								CHANNELS 3 Zrotation Yrotation Xrotation
								JOINT RightForeArm
								{
									OFFSET -8.494598 0.000000 0.000000
									CHANNELS 3 Zrotation Yrotation Xrotation
									JOINT RightHand
									{
										OFFSET -18.483803 0.000000 0.000001
										CHANNELS 3 Zrotation Yrotation Xrotation
										End Site
										{
											OFFSET 0.000000 0.000000 0.000000
										}
									}
								}
							}
						}
					}
				}
			}
		}
	}
}
MOTION
Frames: 11
Frame Time: 0.033333
-1.894165 6.279434 23.836605 -179.625410 2.316797 -179.641844 16.007011 -9.503998 -38.505789 -8.546877 5.962532 -49.414622 19.215433 9.865785 20.633107 3.683811 -5.651052 9.198210 0.000000 0.000000 0.000000 7.624873 2.495978 -36.121640 25.265992 3.705881 -55.633557 -6.858043 -5.815515 49.715632 -7.398703 14.477583 11.886768 0.000000 0.000000 0.000000 3.342372 -0.826892 -29.976570 -2.022615 -1.107475 -11.194843 -1.312993 -0.462686 14.047846 -0.035225 -0.175392 0.083644 -2.520176 0.642924 21.181764 -0.154274 -6.948890 49.504603 0.000000 0.000000 0.000000 0.930799 1.064382 15.016659 7.852059 1.972786 3.002399 -103.274940 56.639262 -7.275833 160.475868 -88.118723 -144.898474 0.000000 0.000000 0.000000 -4.136470 2.511582 14.204276 9.726806 1.898449 6.398697 83.595081 -41.711118 -2.612648 -125.571307 77.650986 -129.242643 0.000000 0.000000 0.000000 
-1.953064 6.279952 23.939022 -179.657307 2.710438 -179.392501 16.394322 -9.738672 -39.190481 -7.890563 6.261066 -49.157473 19.323532 9.386376 21.354779 3.444967 -5.301681 9.135705 0.000000 0.000000 0.000000 7.645744 2.505429 -36.031953 25.341395 3.952948 -55.902534 -6.829326 -5.692356 49.811965 -7.337562 14.830000 12.241026 0.000000 0.000000 0.000000 3.247512 -1.328616 -30.196058 -2.353453 -0.751863 -10.725309 -1.373740 -0.419416 13.952568 0.003700 -0.199796 0.123912 -2.526353 0.809778 21.109055 -0.943717 -6.681945 48.649084 0.000000 0.000000 0.000000 0.875822 1.186623 14.878881 8.020045 1.704864 2.634044 -103.874705 56.919791 -7.470715 158.195418 -87.949006 -142.633201 0.000000 0.000000 0.000000 -4.099950 2.698545 14.177201 9.034551 2.114890 5.878351 83.114789 -42.098226 -1.244093 -128.497961 77.433937 -132.244675 0.000000 0.000000 0.000000 
-1.997988 6.268647 24.022919 -179.826491 3.112496 -179.283190 16.794078 -10.116514 -38.766979 -7.323499 6.512400 -49.922232 19.358563 8.735480 21.814528 3.154170 -5.008241 9.707799 0.000000 0.000000 0.000000 7.639444 2.567491 -35.971389 25.487044 4.190937 -56.287521 -6.844977 -5.467603 50.078172 -7.408334 15.111916 12.283879 0.000000 0.000000 0.000000 3.224839 -1.926650 -30.249497 -2.648142 -0.419801 -10.261193 -1.416673 -0.297626 13.901180 0.035091 -0.085189 0.077018 -2.552781 0.876585 20.918798 -1.567456 -6.673478 47.677408 0.000000 0.000000 0.000000 0.845309 1.295615 14.832717 7.969443 1.714895 2.178647 -104.337198 57.108226 -7.818734 155.130917 -87.801891 -139.540273 0.000000 0.000000 0.000000 -4.119867 2.730750 14.134533 8.550781 2.045406 5.369532 82.975372 -42.393485 -0.483798 -131.368676 76.923810 -135.243715 0.000000 0.000000 0.000000 
-2.014920 6.251999 24.094511 -179.948451 3.483169 -179.276688 17.077232 -10.398547 -38.378348 -6.779776 6.706493 -50.486716 19.351075 8.271223 22.324948 2.833807 -4.784668 10.268769 0.000000 0.000000 0.000000 7.674904 2.672827 -35.933513 25.673337 4.474108 -56.842436 -6.903971 -5.173929 50.426908 -7.549845 15.342106 12.113326 0.000000 0.000000 0.000000 3.062393 -2.119148 -30.225930 -2.823720 -0.229254 -9.895030 -1.347287 -0.298266 13.891830 -0.001197 -0.109174 0.074450 -2.601780 0.910646 20.824779 -1.986718 -6.852304 46.945379 0.000000 0.000000 0.000000 0.843792 1.329089 14.927705 7.802312 1.635309 1.616813 -104.638928 57.334022 -8.262578 156.065137 -87.586863 -140.415411 0.000000 0.000000 0.000000 -4.163995 2.621326 14.262381 8.030242 1.778530 4.820135 82.648520 -42.788208 0.230647 -135.113532 76.391254 -139.055439 0.000000 0.000000 0.000000 
-2.011379 6.236365 24.148800 179.990361 3.801095 -179.255405 17.395314 -10.590639 -38.055219 -6.365581 6.873111 -51.135290 19.340814 7.959071 22.750269 2.521434 -4.624801 10.729091 0.000000 0.000000 0.000000 7.800072 2.816966 -35.793794 25.842550 4.853351 -57.547404 -6.999101 -4.764023 50.859877 -7.678903 15.545003 11.861765 0.000000 0.000000 0.000000 3.349055 -2.613088 -30.232483 -2.947718 -0.078228 -9.560555 -1.439584 -0.228470 13.895082 0.073622 -0.054256 0.111205 -2.524242 0.938679 20.811424 -2.391886 -6.791665 46.439310 0.000000 0.000000 0.000000 0.947929 1.367347 14.848283 7.505401 1.742409 1.381376 -104.089406 57.517645 -7.774664 157.442527 -87.231542 -141.668177 0.000000 0.000000 0.000000 -4.147212 2.865084 14.256320 7.566001 1.458234 4.298715 81.878020 -43.225276 1.417603 -137.366005 75.728247 -141.398672 0.000000 0.000000 0.000000 
-1.995405 6.219891 24.184992 179.930761 4.020472 -179.209766 17.622337 -10.723265 -37.683134 -6.140740 7.056696 -51.716055 19.354862 7.849809 23.055220 2.288179 -4.469939 10.957209 0.000000 0.000000 0.000000 7.904102 3.022929 -35.499218 25.914243 5.338973 -58.379307 -7.171785 -4.096180 51.400220 -7.769514 15.680801 11.581140 0.000000 0.000000 0.000000 3.437327 -2.575606 -30.264459 -2.919080 -0.079773 -9.265089 -1.439631 -0.279543 14.005291 0.072231 -0.101566 0.078636 -2.482235 0.934041 20.867725 -2.558433 -6.891035 46.267626 0.000000 0.000000 0.000000 1.034549 1.342584 14.882888 7.179742 1.792953 0.988042 -103.369046 57.796835 -7.626144 161.700084 -86.956436 -145.759010 0.000000 0.000000 0.000000 -4.221734 2.862014 14.220841 7.051047 0.983679 3.750004 80.806042 -43.624760 2.763251 -140.146671 75.281075 -144.235946 0.000000 0.000000 0.000000 
-1.976132 6.201053 24.208519 179.769158 4.341818 -179.302055 17.855817 -10.739342 -37.259775 -6.054807 7.304956 -52.092651 19.380250 7.769329 23.230001 2.155287 -4.306669 10.935162 0.000000 0.000000 0.000000 8.193287 3.028279 -35.238169 25.878496 5.792175 -59.465307 -7.361630 -3.277524 51.537725 -8.657412 14.876603 10.228453 0.000000 0.000000 0.000000 3.758618 -2.598352 -30.029063 -2.823518 -0.085935 -9.095484 -1.469512 -0.108216 14.006948 0.068640 -0.072378 0.062510 -2.518418 0.977726 21.012008 -2.525710 -7.107527 46.221738 0.000000 0.000000 0.000000 1.023739 1.354426 14.941213 6.803543 2.009672 0.753317 -102.166776 57.950453 -7.247978 164.717580 -86.570401 -148.544498 0.000000 0.000000 0.000000 -4.253060 2.901617 14.381665 6.720296 0.338549 3.163788 79.275458 -43.703594 4.415582 -143.008875 74.665237 -147.173037 0.000000 0.000000 0.000000 
-1.952338 6.194972 24.214731 179.695911 4.678215 -179.531440 18.061139 -10.647601 -36.841579 -6.107455 7.662341 -52.177967 19.442166 7.872141 23.288715 2.131848 -4.121827 10.692173 0.000000 0.000000 0.000000 8.162716 2.811867 -35.170389 26.038787 6.311702 -60.689591 -7.403348 -3.261111 51.874040 -8.720453 14.663624 9.218207 0.000000 0.000000 0.000000 4.250835 -2.720851 -29.706306 -2.637757 0.213529 -8.885600 -1.469702 -0.112087 14.130691 0.043074 0.054792 0.093305 -2.576556 0.938764 21.068355 -2.250522 -7.613118 46.430233 0.000000 0.000000 0.000000 0.961896 1.350919 15.118125 6.250051 2.292758 0.495874 -101.395039 57.856627 -7.393851 166.278032 -86.245270 -149.823451 0.000000 0.000000 0.000000 -4.417662 2.902897 14.378381 6.546792 -0.364845 2.559114 77.618919 -43.383999 5.921492 -145.189591 74.087943 -149.490629 0.000000 0.000000 0.000000 
-1.918337 6.195145 24.202911 179.793146 5.031658 -179.695269 18.315089 -10.501972 -36.432010 -6.273361 8.097907 -51.975151 19.484855 8.077894 23.370592 2.151743 -3.985106 10.330996 0.000000 0.000000 0.000000 8.457339 2.409488 -35.118347 26.299309 7.091803 -61.695685 -7.515901 -3.783616 52.156574 -9.142119 13.899587 7.320719 0.000000 0.000000 0.000000 4.810076 -2.337787 -29.348725 -2.434502 0.283472 -8.770035 -1.628201 -0.084246 14.270477 0.073718 -0.130050 0.035935 -2.669651 0.939476 21.221055 -1.854443 -8.066724 46.711582 0.000000 0.000000 0.000000 0.809011 1.402304 15.260613 5.639560 2.615312 0.295511 -100.347896 57.744953 -7.625770 169.558681 -86.049578 -152.793968 0.000000 0.000000 0.000000 -4.516141 2.895249 14.540342 6.335020 -1.187760 1.912419 76.045605 -42.772127 7.265173 -147.702130 73.365691 -152.160864 0.000000 0.000000 0.000000 
-1.867482 6.206063 24.182077 179.759050 5.476227 -179.857637 18.681481 -10.301597 -36.135177 -6.474242 8.593307 -51.714057 19.476696 8.397445 23.233758 2.203767 -3.908590 9.871129 0.000000 0.000000 0.000000 8.600932 2.054696 -35.149697 26.527488 7.939648 -62.423701 -7.323396 -4.399955 52.592743 -9.849094 12.828956 5.530047 0.000000 0.000000 0.000000 5.451768 -2.183507 -29.049686 -2.267867 0.343092 -8.720405 -1.807500 -0.147560 14.464891 0.082159 0.025343 0.033667 -2.840343 0.926210 21.481778 -1.242918 -8.548030 47.140043 0.000000 0.000000 0.000000 0.609031 1.342740 15.518820 4.902463 3.019141 0.112554 -99.362279 57.553551 -7.846788 171.346374 -85.949714 -154.242460 0.000000 0.000000 0.000000 -4.742231 2.881428 14.688865 6.158225 -2.066618 1.322706 74.694443 -42.071363 8.364812 -150.679601 72.560050 -155.318174 0.000000 0.000000 0.000000 
-1.816883 6.217908 24.163904 179.771057 6.041678 -179.865655 19.205172 -10.019596 -35.876542 -6.677845 9.164339 -51.465902 19.405667 8.515402 23.076709 2.273686 -3.914408 9.568549 0.000000 0.000000 0.000000 9.027358 1.959321 -35.267402 26.514052 8.419691 -63.232710 -7.506235 -5.021900 53.314797 -9.842765 12.513254 5.589100 0.000000 0.000000 0.000000 6.159656 -1.898617 -28.829467 -2.102949 0.414570 -8.754480 -2.035804 -0.110404 14.696089 0.073962 -0.116446 0.009628 -3.043147 0.943127 21.850684 -0.574931 -9.004382 47.646232 0.000000 0.000000 0.000000 0.345996 1.293838 15.794170 4.166793 3.451598 -0.067811 -98.363289 57.466493 -8.077663 175.921863 -85.776733 -158.468626 0.000000 0.000000 0.000000 -5.018426 2.887546 14.949182 6.059606 -3.007638 0.673486 73.810876 -41.402551 9.247922 -153.464447 71.603742 -158.387278 0.000000 0.000000 0.000000 
